G04 #@! TF.FileFunction,Legend,Top*
%FSLAX46Y46*%
G04 Gerber Fmt 4.6, Leading zero omitted, Abs format (unit mm)*
G04 Created by KiCad (PCBNEW 4.0.2-stable) date 29.09.2016 11:58:04*
%MOMM*%
G01*
G04 APERTURE LIST*
%ADD10C,0.100000*%
%ADD11C,0.300000*%
%ADD12C,0.150000*%
%ADD13C,0.254000*%
G04 APERTURE END LIST*
D10*
D11*
X152907143Y-115499999D02*
X152978571Y-115285713D01*
X152978571Y-114928570D01*
X152907143Y-114785713D01*
X152835714Y-114714284D01*
X152692857Y-114642856D01*
X152550000Y-114642856D01*
X152407143Y-114714284D01*
X152335714Y-114785713D01*
X152264286Y-114928570D01*
X152192857Y-115214284D01*
X152121429Y-115357142D01*
X152050000Y-115428570D01*
X151907143Y-115499999D01*
X151764286Y-115499999D01*
X151621429Y-115428570D01*
X151550000Y-115357142D01*
X151478571Y-115214284D01*
X151478571Y-114857142D01*
X151550000Y-114642856D01*
X152978571Y-113285713D02*
X152978571Y-113999999D01*
X151478571Y-113999999D01*
X151550000Y-111999999D02*
X151478571Y-112142856D01*
X151478571Y-112357142D01*
X151550000Y-112571427D01*
X151692857Y-112714285D01*
X151835714Y-112785713D01*
X152121429Y-112857142D01*
X152335714Y-112857142D01*
X152621429Y-112785713D01*
X152764286Y-112714285D01*
X152907143Y-112571427D01*
X152978571Y-112357142D01*
X152978571Y-112214285D01*
X152907143Y-111999999D01*
X152835714Y-111928570D01*
X152335714Y-111928570D01*
X152335714Y-112214285D01*
X151978571Y-110642856D02*
X152978571Y-110642856D01*
X151407143Y-110999999D02*
X152478571Y-111357142D01*
X152478571Y-110428570D01*
X151478571Y-109214285D02*
X151478571Y-109499999D01*
X151550000Y-109642856D01*
X151621429Y-109714285D01*
X151835714Y-109857142D01*
X152121429Y-109928571D01*
X152692857Y-109928571D01*
X152835714Y-109857142D01*
X152907143Y-109785714D01*
X152978571Y-109642856D01*
X152978571Y-109357142D01*
X152907143Y-109214285D01*
X152835714Y-109142856D01*
X152692857Y-109071428D01*
X152335714Y-109071428D01*
X152192857Y-109142856D01*
X152121429Y-109214285D01*
X152050000Y-109357142D01*
X152050000Y-109642856D01*
X152121429Y-109785714D01*
X152192857Y-109857142D01*
X152335714Y-109928571D01*
X151478571Y-107714285D02*
X151478571Y-108428571D01*
X152192857Y-108500000D01*
X152121429Y-108428571D01*
X152050000Y-108285714D01*
X152050000Y-107928571D01*
X152121429Y-107785714D01*
X152192857Y-107714285D01*
X152335714Y-107642857D01*
X152692857Y-107642857D01*
X152835714Y-107714285D01*
X152907143Y-107785714D01*
X152978571Y-107928571D01*
X152978571Y-108285714D01*
X152907143Y-108428571D01*
X152835714Y-108500000D01*
X151478571Y-107142857D02*
X151478571Y-106214286D01*
X152050000Y-106714286D01*
X152050000Y-106500000D01*
X152121429Y-106357143D01*
X152192857Y-106285714D01*
X152335714Y-106214286D01*
X152692857Y-106214286D01*
X152835714Y-106285714D01*
X152907143Y-106357143D01*
X152978571Y-106500000D01*
X152978571Y-106928572D01*
X152907143Y-107071429D01*
X152835714Y-107142857D01*
X151478571Y-105714286D02*
X152978571Y-104714286D01*
X151478571Y-104714286D02*
X152978571Y-105714286D01*
X151478571Y-104357144D02*
X152978571Y-103857144D01*
X151478571Y-103357144D01*
X154950000Y-113428571D02*
X154950000Y-112714285D01*
X155378571Y-113571428D02*
X153878571Y-113071428D01*
X155378571Y-112571428D01*
X155378571Y-111428571D02*
X153878571Y-111428571D01*
X155307143Y-111428571D02*
X155378571Y-111571428D01*
X155378571Y-111857142D01*
X155307143Y-112000000D01*
X155235714Y-112071428D01*
X155092857Y-112142857D01*
X154664286Y-112142857D01*
X154521429Y-112071428D01*
X154450000Y-112000000D01*
X154378571Y-111857142D01*
X154378571Y-111571428D01*
X154450000Y-111428571D01*
X155378571Y-110071428D02*
X154592857Y-110071428D01*
X154450000Y-110142857D01*
X154378571Y-110285714D01*
X154378571Y-110571428D01*
X154450000Y-110714285D01*
X155307143Y-110071428D02*
X155378571Y-110214285D01*
X155378571Y-110571428D01*
X155307143Y-110714285D01*
X155164286Y-110785714D01*
X155021429Y-110785714D01*
X154878571Y-110714285D01*
X154807143Y-110571428D01*
X154807143Y-110214285D01*
X154735714Y-110071428D01*
X154378571Y-109357142D02*
X155878571Y-109357142D01*
X154450000Y-109357142D02*
X154378571Y-109214285D01*
X154378571Y-108928571D01*
X154450000Y-108785714D01*
X154521429Y-108714285D01*
X154664286Y-108642856D01*
X155092857Y-108642856D01*
X155235714Y-108714285D01*
X155307143Y-108785714D01*
X155378571Y-108928571D01*
X155378571Y-109214285D01*
X155307143Y-109357142D01*
X154378571Y-108214285D02*
X154378571Y-107642856D01*
X153878571Y-107999999D02*
X155164286Y-107999999D01*
X155307143Y-107928571D01*
X155378571Y-107785713D01*
X155378571Y-107642856D01*
X155307143Y-106571428D02*
X155378571Y-106714285D01*
X155378571Y-106999999D01*
X155307143Y-107142856D01*
X155164286Y-107214285D01*
X154592857Y-107214285D01*
X154450000Y-107142856D01*
X154378571Y-106999999D01*
X154378571Y-106714285D01*
X154450000Y-106571428D01*
X154592857Y-106499999D01*
X154735714Y-106499999D01*
X154878571Y-107214285D01*
X155378571Y-105857142D02*
X154378571Y-105857142D01*
X154664286Y-105857142D02*
X154521429Y-105785714D01*
X154450000Y-105714285D01*
X154378571Y-105571428D01*
X154378571Y-105428571D01*
D12*
X149995000Y-101845000D02*
X149995000Y-103115000D01*
X157345000Y-101845000D02*
X157345000Y-103115000D01*
X157345000Y-129295000D02*
X157345000Y-128025000D01*
X149995000Y-129295000D02*
X149995000Y-128025000D01*
X149995000Y-101845000D02*
X157345000Y-101845000D01*
X149995000Y-129295000D02*
X157345000Y-129295000D01*
X149995000Y-103115000D02*
X149060000Y-103115000D01*
X155418780Y-126939860D02*
X155779460Y-128410520D01*
X155779460Y-128410520D02*
X156058860Y-127348800D01*
X156058860Y-127348800D02*
X156368740Y-128420680D01*
X156368740Y-128420680D02*
X156709100Y-126970340D01*
X153998920Y-127630740D02*
X154788860Y-127620580D01*
X154788860Y-127620580D02*
X154799020Y-127630740D01*
X154799020Y-127630740D02*
X154799020Y-127620580D01*
X154839660Y-126909380D02*
X154839660Y-128451160D01*
X153950660Y-126899220D02*
X153950660Y-128468940D01*
X153950660Y-128468940D02*
X153960820Y-128458780D01*
X153399480Y-127000820D02*
X153048960Y-126919540D01*
X153048960Y-126919540D02*
X152728920Y-126909380D01*
X152728920Y-126909380D02*
X152490160Y-127110040D01*
X152490160Y-127110040D02*
X152459680Y-127379280D01*
X152459680Y-127379280D02*
X152700980Y-127620580D01*
X152700980Y-127620580D02*
X153089600Y-127750120D01*
X153089600Y-127750120D02*
X153269940Y-127910140D01*
X153269940Y-127910140D02*
X153310580Y-128209860D01*
X153310580Y-128209860D02*
X153079440Y-128430840D01*
X153079440Y-128430840D02*
X152759400Y-128458780D01*
X152759400Y-128458780D02*
X152408880Y-128349560D01*
X151370020Y-126899220D02*
X151121100Y-126919540D01*
X151121100Y-126919540D02*
X150879800Y-127160840D01*
X150879800Y-127160840D02*
X150790900Y-127651060D01*
X150790900Y-127651060D02*
X150818840Y-127999040D01*
X150818840Y-127999040D02*
X151019500Y-128319080D01*
X151019500Y-128319080D02*
X151270960Y-128441000D01*
X151270960Y-128441000D02*
X151580840Y-128369880D01*
X151580840Y-128369880D02*
X151799280Y-128189540D01*
X151799280Y-128189540D02*
X151870400Y-127729800D01*
X151870400Y-127729800D02*
X151819600Y-127320860D01*
X151819600Y-127320860D02*
X151710380Y-127038920D01*
X151710380Y-127038920D02*
X151349700Y-126909380D01*
X151969460Y-125179640D02*
X151710380Y-125740980D01*
X151710380Y-125740980D02*
X152248860Y-126259140D01*
X152248860Y-126259140D02*
X152769560Y-125989900D01*
X152769560Y-125989900D02*
X153048960Y-126149920D01*
X154489140Y-126129600D02*
X154819340Y-125939100D01*
X154819340Y-125939100D02*
X155258760Y-126269300D01*
X155258760Y-126269300D02*
X155731200Y-125779080D01*
X155731200Y-125779080D02*
X155449260Y-125299020D01*
X155449260Y-125299020D02*
X155639760Y-124829120D01*
X155639760Y-124829120D02*
X156249360Y-124641160D01*
X156249360Y-124641160D02*
X156249360Y-123960440D01*
X156249360Y-123960440D02*
X155690560Y-123820740D01*
X155690560Y-123820740D02*
X155489900Y-123249240D01*
X155489900Y-123249240D02*
X155759140Y-122779340D01*
X155759140Y-122779340D02*
X155289240Y-122268800D01*
X155289240Y-122268800D02*
X154771080Y-122530420D01*
X154771080Y-122530420D02*
X154301180Y-122329760D01*
X154301180Y-122329760D02*
X154131000Y-121788740D01*
X154131000Y-121788740D02*
X153440120Y-121770960D01*
X153440120Y-121770960D02*
X153229300Y-122319600D01*
X153229300Y-122319600D02*
X152810200Y-122489780D01*
X152810200Y-122489780D02*
X152259020Y-122220540D01*
X152259020Y-122220540D02*
X151740860Y-122748860D01*
X151740860Y-122748860D02*
X151989780Y-123289880D01*
X151989780Y-123289880D02*
X151819600Y-123769940D01*
X151819600Y-123769940D02*
X151270960Y-123869000D01*
X151270960Y-123869000D02*
X151260800Y-124570040D01*
X151260800Y-124570040D02*
X151819600Y-124770700D01*
X151819600Y-124770700D02*
X151959300Y-125169480D01*
X154100520Y-125149160D02*
X154400240Y-124999300D01*
X154400240Y-124999300D02*
X154600900Y-124801180D01*
X154600900Y-124801180D02*
X154750760Y-124399860D01*
X154750760Y-124399860D02*
X154750760Y-124001080D01*
X154750760Y-124001080D02*
X154600900Y-123650560D01*
X154600900Y-123650560D02*
X154148780Y-123300040D01*
X154148780Y-123300040D02*
X153699200Y-123249240D01*
X153699200Y-123249240D02*
X153300420Y-123350840D01*
X153300420Y-123350840D02*
X152899100Y-123698820D01*
X152899100Y-123698820D02*
X152749240Y-124150940D01*
X152749240Y-124150940D02*
X152800040Y-124648780D01*
X152800040Y-124648780D02*
X153048960Y-124951040D01*
X153048960Y-124951040D02*
X153399480Y-125149160D01*
X153399480Y-125149160D02*
X153048960Y-126149920D01*
X154100520Y-125149160D02*
X154499300Y-126149920D01*
D13*
G36*
X149873000Y-103123000D02*
X149127000Y-103123000D01*
X149127000Y-101877000D01*
X149873000Y-101877000D01*
X149873000Y-103123000D01*
X149873000Y-103123000D01*
G37*
X149873000Y-103123000D02*
X149127000Y-103123000D01*
X149127000Y-101877000D01*
X149873000Y-101877000D01*
X149873000Y-103123000D01*
M02*
