G04 #@! TF.FileFunction,Soldermask,Bot*
%FSLAX46Y46*%
G04 Gerber Fmt 4.6, Leading zero omitted, Abs format (unit mm)*
G04 Created by KiCad (PCBNEW 4.0.2-stable) date 29.09.2016 11:58:04*
%MOMM*%
G01*
G04 APERTURE LIST*
%ADD10C,0.100000*%
%ADD11R,1.727200X1.727200*%
%ADD12O,1.727200X1.727200*%
%ADD13O,1.600000X1.600000*%
G04 APERTURE END LIST*
D10*
D11*
X144780000Y-104140000D03*
D12*
X142240000Y-104140000D03*
X144780000Y-106680000D03*
X142240000Y-106680000D03*
X144780000Y-109220000D03*
X142240000Y-109220000D03*
X144780000Y-111760000D03*
X142240000Y-111760000D03*
X144780000Y-114300000D03*
X142240000Y-114300000D03*
X144780000Y-116840000D03*
X142240000Y-116840000D03*
X144780000Y-119380000D03*
X142240000Y-119380000D03*
X144780000Y-121920000D03*
X142240000Y-121920000D03*
X144780000Y-124460000D03*
X142240000Y-124460000D03*
X144780000Y-127000000D03*
X142240000Y-127000000D03*
D13*
X149860000Y-104140000D03*
X149860000Y-106680000D03*
X149860000Y-109220000D03*
X149860000Y-111760000D03*
X149860000Y-114300000D03*
X149860000Y-116840000D03*
X149860000Y-119380000D03*
X149860000Y-121920000D03*
X149860000Y-124460000D03*
X149860000Y-127000000D03*
X157480000Y-127000000D03*
X157480000Y-124460000D03*
X157480000Y-121920000D03*
X157480000Y-119380000D03*
X157480000Y-116840000D03*
X157480000Y-114300000D03*
X157480000Y-111760000D03*
X157480000Y-109220000D03*
X157480000Y-106680000D03*
X157480000Y-104140000D03*
M02*
