G04 #@! TF.FileFunction,Copper,L1,Top,Signal*
%FSLAX46Y46*%
G04 Gerber Fmt 4.6, Leading zero omitted, Abs format (unit mm)*
G04 Created by KiCad (PCBNEW 4.0.2-stable) date 29.09.2016 11:58:04*
%MOMM*%
G01*
G04 APERTURE LIST*
%ADD10C,0.100000*%
%ADD11R,1.727200X1.727200*%
%ADD12O,1.727200X1.727200*%
%ADD13O,1.600000X1.600000*%
%ADD14C,0.250000*%
G04 APERTURE END LIST*
D10*
D11*
X144780000Y-104140000D03*
D12*
X142240000Y-104140000D03*
X144780000Y-106680000D03*
X142240000Y-106680000D03*
X144780000Y-109220000D03*
X142240000Y-109220000D03*
X144780000Y-111760000D03*
X142240000Y-111760000D03*
X144780000Y-114300000D03*
X142240000Y-114300000D03*
X144780000Y-116840000D03*
X142240000Y-116840000D03*
X144780000Y-119380000D03*
X142240000Y-119380000D03*
X144780000Y-121920000D03*
X142240000Y-121920000D03*
X144780000Y-124460000D03*
X142240000Y-124460000D03*
X144780000Y-127000000D03*
X142240000Y-127000000D03*
D13*
X149860000Y-104140000D03*
X149860000Y-106680000D03*
X149860000Y-109220000D03*
X149860000Y-111760000D03*
X149860000Y-114300000D03*
X149860000Y-116840000D03*
X149860000Y-119380000D03*
X149860000Y-121920000D03*
X149860000Y-124460000D03*
X149860000Y-127000000D03*
X157480000Y-127000000D03*
X157480000Y-124460000D03*
X157480000Y-121920000D03*
X157480000Y-119380000D03*
X157480000Y-116840000D03*
X157480000Y-114300000D03*
X157480000Y-111760000D03*
X157480000Y-109220000D03*
X157480000Y-106680000D03*
X157480000Y-104140000D03*
D14*
X144780000Y-104140000D02*
X149860000Y-104140000D01*
X142240000Y-104140000D02*
X143510000Y-105410000D01*
X143510000Y-105410000D02*
X148590000Y-105410000D01*
X148590000Y-105410000D02*
X149860000Y-106680000D01*
X144780000Y-106680000D02*
X147320000Y-106680000D01*
X147320000Y-106680000D02*
X149860000Y-109220000D01*
X146050000Y-107950000D02*
X149860000Y-111760000D01*
X143510000Y-107950000D02*
X146050000Y-107950000D01*
X142240000Y-106680000D02*
X143510000Y-107950000D01*
X144780000Y-109220000D02*
X144781410Y-109220000D01*
X144781410Y-109220000D02*
X149860000Y-114298590D01*
X149860000Y-114298590D02*
X149860000Y-114300000D01*
X144780000Y-111760000D02*
X145643599Y-112623599D01*
X145643599Y-112623599D02*
X145645009Y-112623599D01*
X145645009Y-112623599D02*
X148590000Y-115568590D01*
X148590000Y-115568590D02*
X148590000Y-118110000D01*
X148590000Y-118110000D02*
X149060001Y-118580001D01*
X149060001Y-118580001D02*
X149860000Y-119380000D01*
X144780000Y-114300000D02*
X145415000Y-114300000D01*
X145415000Y-114300000D02*
X147320000Y-116205000D01*
X147320000Y-116205000D02*
X147320000Y-121920000D01*
X147320000Y-121920000D02*
X149860000Y-124460000D01*
X142240000Y-114300000D02*
X143591399Y-115651399D01*
X143591399Y-115651399D02*
X145350529Y-115651399D01*
X145350529Y-115651399D02*
X146050000Y-116350870D01*
X146050000Y-116350870D02*
X146050000Y-123190000D01*
X146050000Y-123190000D02*
X149860000Y-127000000D01*
X142240000Y-116840000D02*
X140335000Y-114935000D01*
X140335000Y-114935000D02*
X140335000Y-104140000D01*
X140335000Y-104140000D02*
X141523601Y-102951399D01*
X153035000Y-120015000D02*
X157480000Y-124460000D01*
X141523601Y-102951399D02*
X151211399Y-102951399D01*
X151211399Y-102951399D02*
X153035000Y-104775000D01*
X153035000Y-104775000D02*
X153035000Y-120015000D01*
X142240000Y-119380000D02*
X139700000Y-116840000D01*
X139700000Y-116840000D02*
X139700000Y-103505000D01*
X139700000Y-103505000D02*
X140970000Y-102235000D01*
X140970000Y-102235000D02*
X151765000Y-102235000D01*
X151765000Y-102235000D02*
X154305000Y-104775000D01*
X154305000Y-104775000D02*
X154305000Y-116205000D01*
X154305000Y-116205000D02*
X157480000Y-119380000D01*
X142240000Y-121920000D02*
X139065000Y-118745000D01*
X155575000Y-104775000D02*
X155575000Y-112395000D01*
X139065000Y-118745000D02*
X139065000Y-102870000D01*
X139065000Y-102870000D02*
X140335000Y-101600000D01*
X140335000Y-101600000D02*
X152400000Y-101600000D01*
X152400000Y-101600000D02*
X155575000Y-104775000D01*
X156680001Y-113500001D02*
X157480000Y-114300000D01*
X155575000Y-112395000D02*
X156680001Y-113500001D01*
X142240000Y-124460000D02*
X143591399Y-125811399D01*
X158750000Y-127635000D02*
X158750000Y-110490000D01*
X143591399Y-125811399D02*
X146131399Y-125811399D01*
X146131399Y-125811399D02*
X148590000Y-128270000D01*
X148590000Y-128270000D02*
X158115000Y-128270000D01*
X158115000Y-128270000D02*
X158750000Y-127635000D01*
X158750000Y-110490000D02*
X158279999Y-110019999D01*
X158279999Y-110019999D02*
X157480000Y-109220000D01*
X142240000Y-127000000D02*
X144145000Y-128905000D01*
X144145000Y-128905000D02*
X158750000Y-128905000D01*
X159385000Y-128270000D02*
X159385000Y-106045000D01*
X158750000Y-128905000D02*
X159385000Y-128270000D01*
X159385000Y-106045000D02*
X158279999Y-104939999D01*
X158279999Y-104939999D02*
X157480000Y-104140000D01*
M02*
