G04 #@! TF.FileFunction,Legend,Bot*
%FSLAX46Y46*%
G04 Gerber Fmt 4.6, Leading zero omitted, Abs format (unit mm)*
G04 Created by KiCad (PCBNEW 4.0.2-stable) date 29.09.2016 11:58:04*
%MOMM*%
G01*
G04 APERTURE LIST*
%ADD10C,0.100000*%
%ADD11C,0.300000*%
%ADD12C,0.150000*%
G04 APERTURE END LIST*
D10*
D11*
X146928571Y-101642856D02*
X147928571Y-101928570D01*
X147214286Y-102214284D01*
X147928571Y-102499999D01*
X146928571Y-102785713D01*
X146928571Y-103214285D02*
X147928571Y-103499999D01*
X147214286Y-103785713D01*
X147928571Y-104071428D01*
X146928571Y-104357142D01*
X146928571Y-104785714D02*
X147928571Y-105071428D01*
X147214286Y-105357142D01*
X147928571Y-105642857D01*
X146928571Y-105928571D01*
X147785714Y-106500000D02*
X147857143Y-106571428D01*
X147928571Y-106500000D01*
X147857143Y-106428571D01*
X147785714Y-106500000D01*
X147928571Y-106500000D01*
X147928571Y-107214286D02*
X146428571Y-107214286D01*
X147357143Y-107357143D02*
X147928571Y-107785714D01*
X146928571Y-107785714D02*
X147500000Y-107214286D01*
X146928571Y-109071429D02*
X147928571Y-109071429D01*
X146928571Y-108428572D02*
X147714286Y-108428572D01*
X147857143Y-108500000D01*
X147928571Y-108642858D01*
X147928571Y-108857143D01*
X147857143Y-109000000D01*
X147785714Y-109071429D01*
X147928571Y-109785715D02*
X146928571Y-109785715D01*
X147214286Y-109785715D02*
X147071429Y-109857143D01*
X147000000Y-109928572D01*
X146928571Y-110071429D01*
X146928571Y-110214286D01*
X146928571Y-110571429D02*
X146928571Y-111357143D01*
X147928571Y-110571429D01*
X147928571Y-111357143D01*
X147857143Y-111857143D02*
X147928571Y-112000000D01*
X147928571Y-112285715D01*
X147857143Y-112428572D01*
X147714286Y-112500000D01*
X147642857Y-112500000D01*
X147500000Y-112428572D01*
X147428571Y-112285715D01*
X147428571Y-112071429D01*
X147357143Y-111928572D01*
X147214286Y-111857143D01*
X147142857Y-111857143D01*
X147000000Y-111928572D01*
X146928571Y-112071429D01*
X146928571Y-112285715D01*
X147000000Y-112428572D01*
X147857143Y-113785715D02*
X147928571Y-113642858D01*
X147928571Y-113357144D01*
X147857143Y-113214286D01*
X147785714Y-113142858D01*
X147642857Y-113071429D01*
X147214286Y-113071429D01*
X147071429Y-113142858D01*
X147000000Y-113214286D01*
X146928571Y-113357144D01*
X146928571Y-113642858D01*
X147000000Y-113785715D01*
X147928571Y-114428572D02*
X146428571Y-114428572D01*
X147928571Y-115071429D02*
X147142857Y-115071429D01*
X147000000Y-115000000D01*
X146928571Y-114857143D01*
X146928571Y-114642858D01*
X147000000Y-114500000D01*
X147071429Y-114428572D01*
X147928571Y-116000001D02*
X147857143Y-115857143D01*
X147714286Y-115785715D01*
X146428571Y-115785715D01*
X146928571Y-117214286D02*
X147928571Y-117214286D01*
X146928571Y-116571429D02*
X147714286Y-116571429D01*
X147857143Y-116642857D01*
X147928571Y-116785715D01*
X147928571Y-117000000D01*
X147857143Y-117142857D01*
X147785714Y-117214286D01*
X147857143Y-117857143D02*
X147928571Y-118000000D01*
X147928571Y-118285715D01*
X147857143Y-118428572D01*
X147714286Y-118500000D01*
X147642857Y-118500000D01*
X147500000Y-118428572D01*
X147428571Y-118285715D01*
X147428571Y-118071429D01*
X147357143Y-117928572D01*
X147214286Y-117857143D01*
X147142857Y-117857143D01*
X147000000Y-117928572D01*
X146928571Y-118071429D01*
X146928571Y-118285715D01*
X147000000Y-118428572D01*
X147857143Y-119071429D02*
X147928571Y-119214286D01*
X147928571Y-119500001D01*
X147857143Y-119642858D01*
X147714286Y-119714286D01*
X147642857Y-119714286D01*
X147500000Y-119642858D01*
X147428571Y-119500001D01*
X147428571Y-119285715D01*
X147357143Y-119142858D01*
X147214286Y-119071429D01*
X147142857Y-119071429D01*
X147000000Y-119142858D01*
X146928571Y-119285715D01*
X146928571Y-119500001D01*
X147000000Y-119642858D01*
X147357143Y-120357144D02*
X147357143Y-121500001D01*
X147928571Y-122214287D02*
X146428571Y-122214287D01*
X147000000Y-122214287D02*
X146928571Y-122357144D01*
X146928571Y-122642858D01*
X147000000Y-122785715D01*
X147071429Y-122857144D01*
X147214286Y-122928573D01*
X147642857Y-122928573D01*
X147785714Y-122857144D01*
X147857143Y-122785715D01*
X147928571Y-122642858D01*
X147928571Y-122357144D01*
X147857143Y-122214287D01*
X147928571Y-123785716D02*
X147857143Y-123642858D01*
X147714286Y-123571430D01*
X146428571Y-123571430D01*
X147928571Y-124571430D02*
X147857143Y-124428572D01*
X147785714Y-124357144D01*
X147642857Y-124285715D01*
X147214286Y-124285715D01*
X147071429Y-124357144D01*
X147000000Y-124428572D01*
X146928571Y-124571430D01*
X146928571Y-124785715D01*
X147000000Y-124928572D01*
X147071429Y-125000001D01*
X147214286Y-125071430D01*
X147642857Y-125071430D01*
X147785714Y-125000001D01*
X147857143Y-124928572D01*
X147928571Y-124785715D01*
X147928571Y-124571430D01*
X146928571Y-126357144D02*
X148142857Y-126357144D01*
X148285714Y-126285715D01*
X148357143Y-126214287D01*
X148428571Y-126071430D01*
X148428571Y-125857144D01*
X148357143Y-125714287D01*
X147857143Y-126357144D02*
X147928571Y-126214287D01*
X147928571Y-125928573D01*
X147857143Y-125785715D01*
X147785714Y-125714287D01*
X147642857Y-125642858D01*
X147214286Y-125642858D01*
X147071429Y-125714287D01*
X147000000Y-125785715D01*
X146928571Y-125928573D01*
X146928571Y-126214287D01*
X147000000Y-126357144D01*
X147785714Y-127071430D02*
X147857143Y-127142858D01*
X147928571Y-127071430D01*
X147857143Y-127000001D01*
X147785714Y-127071430D01*
X147928571Y-127071430D01*
X147928571Y-128428573D02*
X146428571Y-128428573D01*
X147857143Y-128428573D02*
X147928571Y-128285716D01*
X147928571Y-128000002D01*
X147857143Y-127857144D01*
X147785714Y-127785716D01*
X147642857Y-127714287D01*
X147214286Y-127714287D01*
X147071429Y-127785716D01*
X147000000Y-127857144D01*
X146928571Y-128000002D01*
X146928571Y-128285716D01*
X147000000Y-128428573D01*
X147857143Y-129714287D02*
X147928571Y-129571430D01*
X147928571Y-129285716D01*
X147857143Y-129142859D01*
X147714286Y-129071430D01*
X147142857Y-129071430D01*
X147000000Y-129142859D01*
X146928571Y-129285716D01*
X146928571Y-129571430D01*
X147000000Y-129714287D01*
X147142857Y-129785716D01*
X147285714Y-129785716D01*
X147428571Y-129071430D01*
D12*
X143256000Y-103886000D02*
X143764000Y-103886000D01*
X143256000Y-104394000D02*
X143764000Y-104394000D01*
X143256000Y-127254000D02*
X143764000Y-127254000D01*
X143256000Y-126746000D02*
X143764000Y-126746000D01*
X143256000Y-121666000D02*
X143764000Y-121666000D01*
X143256000Y-122174000D02*
X143764000Y-122174000D01*
X143256000Y-124206000D02*
X143764000Y-124206000D01*
X143256000Y-124714000D02*
X143764000Y-124714000D01*
X143256000Y-119634000D02*
X143764000Y-119634000D01*
X143256000Y-119126000D02*
X143764000Y-119126000D01*
X143256000Y-117094000D02*
X143764000Y-117094000D01*
X143256000Y-116586000D02*
X143764000Y-116586000D01*
X143256000Y-106426000D02*
X143764000Y-106426000D01*
X143256000Y-106934000D02*
X143764000Y-106934000D01*
X143256000Y-108966000D02*
X143764000Y-108966000D01*
X143256000Y-109474000D02*
X143764000Y-109474000D01*
X143256000Y-114554000D02*
X143764000Y-114554000D01*
X143256000Y-114046000D02*
X143764000Y-114046000D01*
X143256000Y-112014000D02*
X143764000Y-112014000D01*
X143256000Y-111506000D02*
X143764000Y-111506000D01*
X140716000Y-127254000D02*
X141224000Y-127254000D01*
X140716000Y-126746000D02*
X141224000Y-126746000D01*
X140716000Y-124714000D02*
X141224000Y-124714000D01*
X140716000Y-124206000D02*
X141224000Y-124206000D01*
X140716000Y-119126000D02*
X141224000Y-119126000D01*
X140716000Y-119634000D02*
X141224000Y-119634000D01*
X140716000Y-121666000D02*
X141224000Y-121666000D01*
X140716000Y-122174000D02*
X141224000Y-122174000D01*
X140716000Y-117094000D02*
X141224000Y-117094000D01*
X140716000Y-116586000D02*
X141224000Y-116586000D01*
X140716000Y-114554000D02*
X141224000Y-114554000D01*
X140716000Y-114046000D02*
X141224000Y-114046000D01*
X140716000Y-103886000D02*
X141224000Y-103886000D01*
X140716000Y-104394000D02*
X141224000Y-104394000D01*
X140716000Y-106426000D02*
X141224000Y-106426000D01*
X140716000Y-106934000D02*
X141224000Y-106934000D01*
X140716000Y-112014000D02*
X141224000Y-112014000D01*
X140716000Y-111506000D02*
X141224000Y-111506000D01*
X140716000Y-109474000D02*
X141224000Y-109474000D01*
X140716000Y-108966000D02*
X141224000Y-108966000D01*
X144780000Y-102590000D02*
X145930000Y-102590000D01*
X145930000Y-102590000D02*
X145930000Y-104140000D01*
X138176000Y-104013000D02*
X132207000Y-104013000D01*
X132207000Y-104013000D02*
X132207000Y-104267000D01*
X132207000Y-104267000D02*
X138049000Y-104267000D01*
X138049000Y-104267000D02*
X138049000Y-104140000D01*
X138049000Y-104140000D02*
X132207000Y-104140000D01*
X140716000Y-123190000D02*
X138176000Y-123190000D01*
X140716000Y-123190000D02*
X140716000Y-125730000D01*
X140716000Y-125730000D02*
X138176000Y-125730000D01*
X138176000Y-124206000D02*
X132080000Y-124206000D01*
X132080000Y-124206000D02*
X132080000Y-124714000D01*
X132080000Y-124714000D02*
X138176000Y-124714000D01*
X138176000Y-125730000D02*
X138176000Y-123190000D01*
X138176000Y-128270000D02*
X138176000Y-125730000D01*
X132080000Y-127254000D02*
X138176000Y-127254000D01*
X132080000Y-126746000D02*
X132080000Y-127254000D01*
X138176000Y-126746000D02*
X132080000Y-126746000D01*
X140716000Y-125730000D02*
X140716000Y-128270000D01*
X140716000Y-125730000D02*
X138176000Y-125730000D01*
X140716000Y-128270000D02*
X138176000Y-128270000D01*
X140716000Y-113030000D02*
X138176000Y-113030000D01*
X140716000Y-113030000D02*
X140716000Y-115570000D01*
X140716000Y-115570000D02*
X138176000Y-115570000D01*
X138176000Y-114046000D02*
X132080000Y-114046000D01*
X132080000Y-114046000D02*
X132080000Y-114554000D01*
X132080000Y-114554000D02*
X138176000Y-114554000D01*
X138176000Y-115570000D02*
X138176000Y-113030000D01*
X138176000Y-118110000D02*
X138176000Y-115570000D01*
X132080000Y-117094000D02*
X138176000Y-117094000D01*
X132080000Y-116586000D02*
X132080000Y-117094000D01*
X138176000Y-116586000D02*
X132080000Y-116586000D01*
X140716000Y-118110000D02*
X138176000Y-118110000D01*
X140716000Y-115570000D02*
X140716000Y-118110000D01*
X140716000Y-115570000D02*
X138176000Y-115570000D01*
X140716000Y-120650000D02*
X138176000Y-120650000D01*
X140716000Y-120650000D02*
X140716000Y-123190000D01*
X140716000Y-123190000D02*
X138176000Y-123190000D01*
X138176000Y-121666000D02*
X132080000Y-121666000D01*
X132080000Y-121666000D02*
X132080000Y-122174000D01*
X132080000Y-122174000D02*
X138176000Y-122174000D01*
X138176000Y-123190000D02*
X138176000Y-120650000D01*
X138176000Y-120650000D02*
X138176000Y-118110000D01*
X132080000Y-119634000D02*
X138176000Y-119634000D01*
X132080000Y-119126000D02*
X132080000Y-119634000D01*
X138176000Y-119126000D02*
X132080000Y-119126000D01*
X140716000Y-120650000D02*
X138176000Y-120650000D01*
X140716000Y-118110000D02*
X140716000Y-120650000D01*
X140716000Y-118110000D02*
X138176000Y-118110000D01*
X140716000Y-107950000D02*
X138176000Y-107950000D01*
X140716000Y-107950000D02*
X140716000Y-110490000D01*
X140716000Y-110490000D02*
X138176000Y-110490000D01*
X138176000Y-108966000D02*
X132080000Y-108966000D01*
X132080000Y-108966000D02*
X132080000Y-109474000D01*
X132080000Y-109474000D02*
X138176000Y-109474000D01*
X138176000Y-110490000D02*
X138176000Y-107950000D01*
X138176000Y-113030000D02*
X138176000Y-110490000D01*
X132080000Y-112014000D02*
X138176000Y-112014000D01*
X132080000Y-111506000D02*
X132080000Y-112014000D01*
X138176000Y-111506000D02*
X132080000Y-111506000D01*
X140716000Y-113030000D02*
X138176000Y-113030000D01*
X140716000Y-110490000D02*
X140716000Y-113030000D01*
X140716000Y-110490000D02*
X138176000Y-110490000D01*
X140716000Y-105410000D02*
X138176000Y-105410000D01*
X140716000Y-105410000D02*
X140716000Y-107950000D01*
X140716000Y-107950000D02*
X138176000Y-107950000D01*
X138176000Y-106426000D02*
X132080000Y-106426000D01*
X132080000Y-106426000D02*
X132080000Y-106934000D01*
X132080000Y-106934000D02*
X138176000Y-106934000D01*
X138176000Y-107950000D02*
X138176000Y-105410000D01*
X138176000Y-105410000D02*
X138176000Y-102870000D01*
X132080000Y-104394000D02*
X138176000Y-104394000D01*
X132080000Y-103886000D02*
X132080000Y-104394000D01*
X138176000Y-103886000D02*
X132080000Y-103886000D01*
X140716000Y-105410000D02*
X138176000Y-105410000D01*
X140716000Y-102870000D02*
X140716000Y-105410000D01*
X140716000Y-102870000D02*
X138176000Y-102870000D01*
M02*
