G04 #@! TF.FileFunction,Copper,L2,Bot,Signal*
%FSLAX46Y46*%
G04 Gerber Fmt 4.6, Leading zero omitted, Abs format (unit mm)*
G04 Created by KiCad (PCBNEW 4.0.2-stable) date 02.09.2016 09:00:48*
%MOMM*%
G01*
G04 APERTURE LIST*
%ADD10C,0.100000*%
%ADD11O,1.600000X1.600000*%
%ADD12R,0.500000X0.600000*%
%ADD13C,0.600000*%
%ADD14C,0.254000*%
G04 APERTURE END LIST*
D10*
D11*
X150000000Y-123460000D03*
X150000000Y-126000000D03*
X150000000Y-128540000D03*
X150000000Y-131080000D03*
X150000000Y-133620000D03*
X150000000Y-136160000D03*
X150000000Y-138700000D03*
X150000000Y-141240000D03*
X150000000Y-143780000D03*
X150000000Y-146320000D03*
X157620000Y-146320000D03*
X157620000Y-143780000D03*
X157620000Y-141240000D03*
X157620000Y-138700000D03*
X157620000Y-136160000D03*
X157620000Y-133620000D03*
X157620000Y-131080000D03*
X157620000Y-128540000D03*
X157620000Y-126000000D03*
X157620000Y-123460000D03*
D12*
X153860000Y-135760000D03*
X153860000Y-134660000D03*
D13*
X154950000Y-137450000D03*
X152850000Y-132900000D03*
D14*
G36*
X157913000Y-122077689D02*
X157648113Y-122025000D01*
X157591887Y-122025000D01*
X157042736Y-122134233D01*
X156577189Y-122445302D01*
X156266120Y-122910849D01*
X156156887Y-123460000D01*
X156266120Y-124009151D01*
X156577189Y-124474698D01*
X156959275Y-124730000D01*
X156577189Y-124985302D01*
X156266120Y-125450849D01*
X156156887Y-126000000D01*
X156266120Y-126549151D01*
X156577189Y-127014698D01*
X156959275Y-127270000D01*
X156577189Y-127525302D01*
X156266120Y-127990849D01*
X156156887Y-128540000D01*
X156266120Y-129089151D01*
X156577189Y-129554698D01*
X156959275Y-129810000D01*
X156577189Y-130065302D01*
X156266120Y-130530849D01*
X156156887Y-131080000D01*
X156266120Y-131629151D01*
X156577189Y-132094698D01*
X156959275Y-132350000D01*
X156577189Y-132605302D01*
X156266120Y-133070849D01*
X156156887Y-133620000D01*
X156266120Y-134169151D01*
X156577189Y-134634698D01*
X156859003Y-134823000D01*
X154622250Y-134823000D01*
X154586250Y-134787000D01*
X153985000Y-134787000D01*
X153985000Y-134807000D01*
X153735000Y-134807000D01*
X153735000Y-134787000D01*
X153133750Y-134787000D01*
X153097750Y-134823000D01*
X150760997Y-134823000D01*
X151042811Y-134634698D01*
X151310755Y-134233691D01*
X152975000Y-134233691D01*
X152975000Y-134374250D01*
X153133750Y-134533000D01*
X153735000Y-134533000D01*
X153735000Y-133883750D01*
X153985000Y-133883750D01*
X153985000Y-134533000D01*
X154586250Y-134533000D01*
X154745000Y-134374250D01*
X154745000Y-134233691D01*
X154648327Y-134000302D01*
X154469699Y-133821673D01*
X154236310Y-133725000D01*
X154143750Y-133725000D01*
X153985000Y-133883750D01*
X153735000Y-133883750D01*
X153576250Y-133725000D01*
X153483690Y-133725000D01*
X153250301Y-133821673D01*
X153071673Y-134000302D01*
X152975000Y-134233691D01*
X151310755Y-134233691D01*
X151353880Y-134169151D01*
X151463113Y-133620000D01*
X151353880Y-133070849D01*
X151042811Y-132605302D01*
X150660725Y-132350000D01*
X151042811Y-132094698D01*
X151353880Y-131629151D01*
X151463113Y-131080000D01*
X151353880Y-130530849D01*
X151042811Y-130065302D01*
X150660725Y-129810000D01*
X151042811Y-129554698D01*
X151353880Y-129089151D01*
X151463113Y-128540000D01*
X151353880Y-127990849D01*
X151042811Y-127525302D01*
X150660725Y-127270000D01*
X151042811Y-127014698D01*
X151353880Y-126549151D01*
X151463113Y-126000000D01*
X151353880Y-125450849D01*
X151042811Y-124985302D01*
X150638297Y-124715014D01*
X150855134Y-124612389D01*
X151231041Y-124197423D01*
X151391904Y-123809039D01*
X151269915Y-123587000D01*
X150127000Y-123587000D01*
X150127000Y-123607000D01*
X149873000Y-123607000D01*
X149873000Y-123587000D01*
X149853000Y-123587000D01*
X149853000Y-123333000D01*
X149873000Y-123333000D01*
X149873000Y-122189371D01*
X150127000Y-122189371D01*
X150127000Y-123333000D01*
X151269915Y-123333000D01*
X151391904Y-123110961D01*
X151231041Y-122722577D01*
X150855134Y-122307611D01*
X150349041Y-122068086D01*
X150127000Y-122189371D01*
X149873000Y-122189371D01*
X149681000Y-122084495D01*
X149681000Y-121741000D01*
X157913000Y-121741000D01*
X157913000Y-122077689D01*
X157913000Y-122077689D01*
G37*
X157913000Y-122077689D02*
X157648113Y-122025000D01*
X157591887Y-122025000D01*
X157042736Y-122134233D01*
X156577189Y-122445302D01*
X156266120Y-122910849D01*
X156156887Y-123460000D01*
X156266120Y-124009151D01*
X156577189Y-124474698D01*
X156959275Y-124730000D01*
X156577189Y-124985302D01*
X156266120Y-125450849D01*
X156156887Y-126000000D01*
X156266120Y-126549151D01*
X156577189Y-127014698D01*
X156959275Y-127270000D01*
X156577189Y-127525302D01*
X156266120Y-127990849D01*
X156156887Y-128540000D01*
X156266120Y-129089151D01*
X156577189Y-129554698D01*
X156959275Y-129810000D01*
X156577189Y-130065302D01*
X156266120Y-130530849D01*
X156156887Y-131080000D01*
X156266120Y-131629151D01*
X156577189Y-132094698D01*
X156959275Y-132350000D01*
X156577189Y-132605302D01*
X156266120Y-133070849D01*
X156156887Y-133620000D01*
X156266120Y-134169151D01*
X156577189Y-134634698D01*
X156859003Y-134823000D01*
X154622250Y-134823000D01*
X154586250Y-134787000D01*
X153985000Y-134787000D01*
X153985000Y-134807000D01*
X153735000Y-134807000D01*
X153735000Y-134787000D01*
X153133750Y-134787000D01*
X153097750Y-134823000D01*
X150760997Y-134823000D01*
X151042811Y-134634698D01*
X151310755Y-134233691D01*
X152975000Y-134233691D01*
X152975000Y-134374250D01*
X153133750Y-134533000D01*
X153735000Y-134533000D01*
X153735000Y-133883750D01*
X153985000Y-133883750D01*
X153985000Y-134533000D01*
X154586250Y-134533000D01*
X154745000Y-134374250D01*
X154745000Y-134233691D01*
X154648327Y-134000302D01*
X154469699Y-133821673D01*
X154236310Y-133725000D01*
X154143750Y-133725000D01*
X153985000Y-133883750D01*
X153735000Y-133883750D01*
X153576250Y-133725000D01*
X153483690Y-133725000D01*
X153250301Y-133821673D01*
X153071673Y-134000302D01*
X152975000Y-134233691D01*
X151310755Y-134233691D01*
X151353880Y-134169151D01*
X151463113Y-133620000D01*
X151353880Y-133070849D01*
X151042811Y-132605302D01*
X150660725Y-132350000D01*
X151042811Y-132094698D01*
X151353880Y-131629151D01*
X151463113Y-131080000D01*
X151353880Y-130530849D01*
X151042811Y-130065302D01*
X150660725Y-129810000D01*
X151042811Y-129554698D01*
X151353880Y-129089151D01*
X151463113Y-128540000D01*
X151353880Y-127990849D01*
X151042811Y-127525302D01*
X150660725Y-127270000D01*
X151042811Y-127014698D01*
X151353880Y-126549151D01*
X151463113Y-126000000D01*
X151353880Y-125450849D01*
X151042811Y-124985302D01*
X150638297Y-124715014D01*
X150855134Y-124612389D01*
X151231041Y-124197423D01*
X151391904Y-123809039D01*
X151269915Y-123587000D01*
X150127000Y-123587000D01*
X150127000Y-123607000D01*
X149873000Y-123607000D01*
X149873000Y-123587000D01*
X149853000Y-123587000D01*
X149853000Y-123333000D01*
X149873000Y-123333000D01*
X149873000Y-122189371D01*
X150127000Y-122189371D01*
X150127000Y-123333000D01*
X151269915Y-123333000D01*
X151391904Y-123110961D01*
X151231041Y-122722577D01*
X150855134Y-122307611D01*
X150349041Y-122068086D01*
X150127000Y-122189371D01*
X149873000Y-122189371D01*
X149681000Y-122084495D01*
X149681000Y-121741000D01*
X157913000Y-121741000D01*
X157913000Y-122077689D01*
G36*
X152975000Y-135474250D02*
X153133750Y-135633000D01*
X153735000Y-135633000D01*
X153735000Y-135613000D01*
X153985000Y-135613000D01*
X153985000Y-135633000D01*
X154586250Y-135633000D01*
X154745000Y-135474250D01*
X154745000Y-135427000D01*
X156388964Y-135427000D01*
X156266120Y-135610849D01*
X156156887Y-136160000D01*
X156266120Y-136709151D01*
X156577189Y-137174698D01*
X156959275Y-137430000D01*
X156577189Y-137685302D01*
X156266120Y-138150849D01*
X156156887Y-138700000D01*
X156266120Y-139249151D01*
X156577189Y-139714698D01*
X156959275Y-139970000D01*
X156577189Y-140225302D01*
X156266120Y-140690849D01*
X156156887Y-141240000D01*
X156266120Y-141789151D01*
X156577189Y-142254698D01*
X156959275Y-142510000D01*
X156577189Y-142765302D01*
X156266120Y-143230849D01*
X156156887Y-143780000D01*
X156266120Y-144329151D01*
X156577189Y-144794698D01*
X156981703Y-145064986D01*
X156764866Y-145167611D01*
X156388959Y-145582577D01*
X156228096Y-145970961D01*
X156350085Y-146193000D01*
X157493000Y-146193000D01*
X157493000Y-146173000D01*
X157747000Y-146173000D01*
X157747000Y-146193000D01*
X157767000Y-146193000D01*
X157767000Y-146447000D01*
X157747000Y-146447000D01*
X157747000Y-147590629D01*
X157913000Y-147681303D01*
X157913000Y-148070500D01*
X149681000Y-148070500D01*
X149681000Y-147697139D01*
X149971887Y-147755000D01*
X150028113Y-147755000D01*
X150577264Y-147645767D01*
X151042811Y-147334698D01*
X151353880Y-146869151D01*
X151393684Y-146669039D01*
X156228096Y-146669039D01*
X156388959Y-147057423D01*
X156764866Y-147472389D01*
X157270959Y-147711914D01*
X157493000Y-147590629D01*
X157493000Y-146447000D01*
X156350085Y-146447000D01*
X156228096Y-146669039D01*
X151393684Y-146669039D01*
X151463113Y-146320000D01*
X151353880Y-145770849D01*
X151042811Y-145305302D01*
X150660725Y-145050000D01*
X151042811Y-144794698D01*
X151353880Y-144329151D01*
X151463113Y-143780000D01*
X151353880Y-143230849D01*
X151042811Y-142765302D01*
X150660725Y-142510000D01*
X151042811Y-142254698D01*
X151353880Y-141789151D01*
X151463113Y-141240000D01*
X151353880Y-140690849D01*
X151042811Y-140225302D01*
X150660725Y-139970000D01*
X151042811Y-139714698D01*
X151353880Y-139249151D01*
X151463113Y-138700000D01*
X151353880Y-138150849D01*
X151042811Y-137685302D01*
X150660725Y-137430000D01*
X151042811Y-137174698D01*
X151353880Y-136709151D01*
X151463113Y-136160000D01*
X151440388Y-136045750D01*
X152975000Y-136045750D01*
X152975000Y-136186309D01*
X153071673Y-136419698D01*
X153250301Y-136598327D01*
X153483690Y-136695000D01*
X153576250Y-136695000D01*
X153735000Y-136536250D01*
X153735000Y-135887000D01*
X153985000Y-135887000D01*
X153985000Y-136536250D01*
X154143750Y-136695000D01*
X154236310Y-136695000D01*
X154469699Y-136598327D01*
X154648327Y-136419698D01*
X154745000Y-136186309D01*
X154745000Y-136045750D01*
X154586250Y-135887000D01*
X153985000Y-135887000D01*
X153735000Y-135887000D01*
X153133750Y-135887000D01*
X152975000Y-136045750D01*
X151440388Y-136045750D01*
X151353880Y-135610849D01*
X151231036Y-135427000D01*
X152975000Y-135427000D01*
X152975000Y-135474250D01*
X152975000Y-135474250D01*
G37*
X152975000Y-135474250D02*
X153133750Y-135633000D01*
X153735000Y-135633000D01*
X153735000Y-135613000D01*
X153985000Y-135613000D01*
X153985000Y-135633000D01*
X154586250Y-135633000D01*
X154745000Y-135474250D01*
X154745000Y-135427000D01*
X156388964Y-135427000D01*
X156266120Y-135610849D01*
X156156887Y-136160000D01*
X156266120Y-136709151D01*
X156577189Y-137174698D01*
X156959275Y-137430000D01*
X156577189Y-137685302D01*
X156266120Y-138150849D01*
X156156887Y-138700000D01*
X156266120Y-139249151D01*
X156577189Y-139714698D01*
X156959275Y-139970000D01*
X156577189Y-140225302D01*
X156266120Y-140690849D01*
X156156887Y-141240000D01*
X156266120Y-141789151D01*
X156577189Y-142254698D01*
X156959275Y-142510000D01*
X156577189Y-142765302D01*
X156266120Y-143230849D01*
X156156887Y-143780000D01*
X156266120Y-144329151D01*
X156577189Y-144794698D01*
X156981703Y-145064986D01*
X156764866Y-145167611D01*
X156388959Y-145582577D01*
X156228096Y-145970961D01*
X156350085Y-146193000D01*
X157493000Y-146193000D01*
X157493000Y-146173000D01*
X157747000Y-146173000D01*
X157747000Y-146193000D01*
X157767000Y-146193000D01*
X157767000Y-146447000D01*
X157747000Y-146447000D01*
X157747000Y-147590629D01*
X157913000Y-147681303D01*
X157913000Y-148070500D01*
X149681000Y-148070500D01*
X149681000Y-147697139D01*
X149971887Y-147755000D01*
X150028113Y-147755000D01*
X150577264Y-147645767D01*
X151042811Y-147334698D01*
X151353880Y-146869151D01*
X151393684Y-146669039D01*
X156228096Y-146669039D01*
X156388959Y-147057423D01*
X156764866Y-147472389D01*
X157270959Y-147711914D01*
X157493000Y-147590629D01*
X157493000Y-146447000D01*
X156350085Y-146447000D01*
X156228096Y-146669039D01*
X151393684Y-146669039D01*
X151463113Y-146320000D01*
X151353880Y-145770849D01*
X151042811Y-145305302D01*
X150660725Y-145050000D01*
X151042811Y-144794698D01*
X151353880Y-144329151D01*
X151463113Y-143780000D01*
X151353880Y-143230849D01*
X151042811Y-142765302D01*
X150660725Y-142510000D01*
X151042811Y-142254698D01*
X151353880Y-141789151D01*
X151463113Y-141240000D01*
X151353880Y-140690849D01*
X151042811Y-140225302D01*
X150660725Y-139970000D01*
X151042811Y-139714698D01*
X151353880Y-139249151D01*
X151463113Y-138700000D01*
X151353880Y-138150849D01*
X151042811Y-137685302D01*
X150660725Y-137430000D01*
X151042811Y-137174698D01*
X151353880Y-136709151D01*
X151463113Y-136160000D01*
X151440388Y-136045750D01*
X152975000Y-136045750D01*
X152975000Y-136186309D01*
X153071673Y-136419698D01*
X153250301Y-136598327D01*
X153483690Y-136695000D01*
X153576250Y-136695000D01*
X153735000Y-136536250D01*
X153735000Y-135887000D01*
X153985000Y-135887000D01*
X153985000Y-136536250D01*
X154143750Y-136695000D01*
X154236310Y-136695000D01*
X154469699Y-136598327D01*
X154648327Y-136419698D01*
X154745000Y-136186309D01*
X154745000Y-136045750D01*
X154586250Y-135887000D01*
X153985000Y-135887000D01*
X153735000Y-135887000D01*
X153133750Y-135887000D01*
X152975000Y-136045750D01*
X151440388Y-136045750D01*
X151353880Y-135610849D01*
X151231036Y-135427000D01*
X152975000Y-135427000D01*
X152975000Y-135474250D01*
M02*
