G04 #@! TF.FileFunction,Legend,Bot*
%FSLAX46Y46*%
G04 Gerber Fmt 4.6, Leading zero omitted, Abs format (unit mm)*
G04 Created by KiCad (PCBNEW 4.0.2-stable) date 02.09.2016 09:00:48*
%MOMM*%
G01*
G04 APERTURE LIST*
%ADD10C,0.100000*%
%ADD11C,0.300000*%
%ADD12C,0.150000*%
G04 APERTURE END LIST*
D10*
D11*
X152303500Y-121808333D02*
X153236833Y-121958333D01*
X152570167Y-122308333D01*
X153236833Y-122491666D01*
X152303500Y-122875000D01*
X152303500Y-123275000D02*
X153236833Y-123425000D01*
X152570167Y-123775000D01*
X153236833Y-123958333D01*
X152303500Y-124341667D01*
X152303500Y-124741667D02*
X153236833Y-124891667D01*
X152570167Y-125241667D01*
X153236833Y-125425000D01*
X152303500Y-125808334D01*
X153103500Y-126241667D02*
X153170167Y-126300001D01*
X153236833Y-126225000D01*
X153170167Y-126166668D01*
X153103500Y-126241667D01*
X153236833Y-126225000D01*
X153236833Y-126891667D02*
X151836833Y-127066667D01*
X152703500Y-127091668D02*
X153236833Y-127425001D01*
X152303500Y-127541668D02*
X152836833Y-126941667D01*
X152303500Y-128741667D02*
X153236833Y-128625000D01*
X152303500Y-128141667D02*
X153036833Y-128050000D01*
X153170167Y-128100001D01*
X153236833Y-128225000D01*
X153236833Y-128425000D01*
X153170167Y-128566668D01*
X153103500Y-128641667D01*
X153236833Y-129291667D02*
X152303500Y-129408334D01*
X152570167Y-129375001D02*
X152436833Y-129458334D01*
X152370167Y-129533335D01*
X152303500Y-129675001D01*
X152303500Y-129808334D01*
X152303500Y-130141668D02*
X152303500Y-130875001D01*
X153236833Y-130025001D01*
X153236833Y-130758334D01*
X153170167Y-131233335D02*
X153236833Y-131358334D01*
X153236833Y-131625001D01*
X153170167Y-131766668D01*
X153036833Y-131850001D01*
X152970167Y-131858335D01*
X152836833Y-131808334D01*
X152770167Y-131683335D01*
X152770167Y-131483335D01*
X152703500Y-131358334D01*
X152570167Y-131308335D01*
X152503500Y-131316668D01*
X152370167Y-131400001D01*
X152303500Y-131541668D01*
X152303500Y-131741668D01*
X152370167Y-131866668D01*
X153170167Y-133033334D02*
X153236833Y-132891667D01*
X153236833Y-132625000D01*
X153170167Y-132500001D01*
X153103500Y-132441667D01*
X152970167Y-132391668D01*
X152570167Y-132441668D01*
X152436833Y-132525000D01*
X152370167Y-132600001D01*
X152303500Y-132741667D01*
X152303500Y-133008334D01*
X152370167Y-133133334D01*
X153236833Y-133625000D02*
X151836833Y-133800000D01*
X153236833Y-134225000D02*
X152503500Y-134316667D01*
X152370167Y-134266668D01*
X152303500Y-134141667D01*
X152303500Y-133941667D01*
X152370167Y-133800001D01*
X152436833Y-133725000D01*
X153236833Y-135091667D02*
X153170167Y-134966668D01*
X153036833Y-134916667D01*
X151836833Y-135066667D01*
X152303500Y-136341667D02*
X153236833Y-136225000D01*
X152303500Y-135741667D02*
X153036833Y-135650000D01*
X153170167Y-135700001D01*
X153236833Y-135825000D01*
X153236833Y-136025000D01*
X153170167Y-136166668D01*
X153103500Y-136241667D01*
X153170167Y-136833335D02*
X153236833Y-136958334D01*
X153236833Y-137225001D01*
X153170167Y-137366668D01*
X153036833Y-137450001D01*
X152970167Y-137458335D01*
X152836833Y-137408334D01*
X152770167Y-137283335D01*
X152770167Y-137083335D01*
X152703500Y-136958334D01*
X152570167Y-136908335D01*
X152503500Y-136916668D01*
X152370167Y-137000001D01*
X152303500Y-137141668D01*
X152303500Y-137341668D01*
X152370167Y-137466668D01*
X153170167Y-137966668D02*
X153236833Y-138091667D01*
X153236833Y-138358334D01*
X153170167Y-138500001D01*
X153036833Y-138583334D01*
X152970167Y-138591668D01*
X152836833Y-138541667D01*
X152770167Y-138416668D01*
X152770167Y-138216668D01*
X152703500Y-138091667D01*
X152570167Y-138041668D01*
X152503500Y-138050001D01*
X152370167Y-138133334D01*
X152303500Y-138275001D01*
X152303500Y-138475001D01*
X152370167Y-138600001D01*
X152703500Y-139225000D02*
X152703500Y-140291667D01*
X153236833Y-140891666D02*
X151836833Y-141066666D01*
X152370167Y-141000000D02*
X152303500Y-141141667D01*
X152303500Y-141408333D01*
X152370167Y-141533334D01*
X152436833Y-141591666D01*
X152570167Y-141641667D01*
X152970167Y-141591667D01*
X153103500Y-141508333D01*
X153170167Y-141433334D01*
X153236833Y-141291666D01*
X153236833Y-141025000D01*
X153170167Y-140900000D01*
X153236833Y-142358333D02*
X153170167Y-142233334D01*
X153036833Y-142183333D01*
X151836833Y-142333333D01*
X153236833Y-143091666D02*
X153170167Y-142966667D01*
X153103500Y-142908333D01*
X152970167Y-142858334D01*
X152570167Y-142908334D01*
X152436833Y-142991666D01*
X152370167Y-143066667D01*
X152303500Y-143208333D01*
X152303500Y-143408333D01*
X152370167Y-143533334D01*
X152436833Y-143591666D01*
X152570167Y-143641667D01*
X152970167Y-143591667D01*
X153103500Y-143508333D01*
X153170167Y-143433334D01*
X153236833Y-143291666D01*
X153236833Y-143091666D01*
X152303500Y-144875000D02*
X153436833Y-144733333D01*
X153570167Y-144650001D01*
X153636833Y-144575000D01*
X153703500Y-144433334D01*
X153703500Y-144233334D01*
X153636833Y-144108333D01*
X153170167Y-144766667D02*
X153236833Y-144625000D01*
X153236833Y-144358333D01*
X153170167Y-144233334D01*
X153103500Y-144175000D01*
X152970167Y-144125001D01*
X152570167Y-144175001D01*
X152436833Y-144258333D01*
X152370167Y-144333334D01*
X152303500Y-144475000D01*
X152303500Y-144741667D01*
X152370167Y-144866667D01*
X153103500Y-145441667D02*
X153170167Y-145500001D01*
X153236833Y-145425000D01*
X153170167Y-145366668D01*
X153103500Y-145441667D01*
X153236833Y-145425000D01*
X153236833Y-146691667D02*
X151836833Y-146866667D01*
X153170167Y-146700001D02*
X153236833Y-146558334D01*
X153236833Y-146291667D01*
X153170167Y-146166668D01*
X153103500Y-146108334D01*
X152970167Y-146058335D01*
X152570167Y-146108335D01*
X152436833Y-146191667D01*
X152370167Y-146266668D01*
X152303500Y-146408334D01*
X152303500Y-146675001D01*
X152370167Y-146800001D01*
X153170167Y-147900002D02*
X153236833Y-147758334D01*
X153236833Y-147491668D01*
X153170167Y-147366668D01*
X153036833Y-147316668D01*
X152503500Y-147383335D01*
X152370167Y-147466668D01*
X152303500Y-147608335D01*
X152303500Y-147875001D01*
X152370167Y-148000002D01*
X152503500Y-148050001D01*
X152636833Y-148033334D01*
X152770167Y-147350002D01*
X154163500Y-123325000D02*
X154096833Y-123199999D01*
X154096833Y-122999999D01*
X154163500Y-122791666D01*
X154296833Y-122641666D01*
X154430167Y-122558333D01*
X154696833Y-122458333D01*
X154896833Y-122433333D01*
X155163500Y-122466666D01*
X155296833Y-122516666D01*
X155430167Y-122633333D01*
X155496833Y-122824999D01*
X155496833Y-122958333D01*
X155430167Y-123166667D01*
X155363500Y-123241666D01*
X154896833Y-123299999D01*
X154896833Y-123033333D01*
X155496833Y-123824999D02*
X154563500Y-123941666D01*
X154830167Y-123908333D02*
X154696833Y-123991666D01*
X154630167Y-124066667D01*
X154563500Y-124208333D01*
X154563500Y-124341666D01*
X155430167Y-125233334D02*
X155496833Y-125091666D01*
X155496833Y-124825000D01*
X155430167Y-124700000D01*
X155296833Y-124650000D01*
X154763500Y-124716667D01*
X154630167Y-124800000D01*
X154563500Y-124941667D01*
X154563500Y-125208333D01*
X154630167Y-125333334D01*
X154763500Y-125383333D01*
X154896833Y-125366666D01*
X155030167Y-124683334D01*
X155430167Y-126433334D02*
X155496833Y-126291666D01*
X155496833Y-126025000D01*
X155430167Y-125900000D01*
X155296833Y-125850000D01*
X154763500Y-125916667D01*
X154630167Y-126000000D01*
X154563500Y-126141667D01*
X154563500Y-126408333D01*
X154630167Y-126533334D01*
X154763500Y-126583333D01*
X154896833Y-126566666D01*
X155030167Y-125883334D01*
X154563500Y-127208333D02*
X155496833Y-127091666D01*
X154696833Y-127191666D02*
X154630167Y-127266667D01*
X154563500Y-127408333D01*
X154563500Y-127608333D01*
X154630167Y-127733334D01*
X154763500Y-127783333D01*
X155496833Y-127691666D01*
X155496833Y-128358333D02*
X154096833Y-128533333D01*
X154096833Y-129066667D01*
X154163500Y-129191667D01*
X154230167Y-129250001D01*
X154363500Y-129300000D01*
X154563500Y-129275000D01*
X154696833Y-129191667D01*
X154763500Y-129116667D01*
X154830167Y-128975001D01*
X154830167Y-128441667D01*
X155096833Y-129741667D02*
X155096833Y-130408333D01*
X155496833Y-129558333D02*
X154096833Y-130200000D01*
X155496833Y-130491667D01*
X155496833Y-130958333D02*
X154096833Y-131133333D01*
X155496833Y-131758333D02*
X154696833Y-131258333D01*
X154096833Y-131933333D02*
X154896833Y-131033333D01*
X154096833Y-133200000D02*
X154096833Y-132533333D01*
X154763500Y-132383334D01*
X154696833Y-132458333D01*
X154630167Y-132600001D01*
X154630167Y-132933334D01*
X154696833Y-133058333D01*
X154763500Y-133116667D01*
X154896833Y-133166667D01*
X155230167Y-133125001D01*
X155363500Y-133041667D01*
X155430167Y-132966667D01*
X155496833Y-132825000D01*
X155496833Y-132491667D01*
X155430167Y-132366667D01*
X155363500Y-132308334D01*
X155496833Y-140091668D02*
X154096833Y-140266668D01*
X154096833Y-140600002D01*
X154163500Y-140791669D01*
X154296833Y-140908335D01*
X154430167Y-140958336D01*
X154696833Y-140991668D01*
X154896833Y-140966668D01*
X155163500Y-140866669D01*
X155296833Y-140783335D01*
X155430167Y-140633336D01*
X155496833Y-140425002D01*
X155496833Y-140091668D01*
X155496833Y-141491668D02*
X154096833Y-141666668D01*
X155496833Y-142158335D02*
X154096833Y-142333335D01*
X154096833Y-142866669D01*
X154163500Y-142991669D01*
X154230167Y-143050003D01*
X154363500Y-143100002D01*
X154563500Y-143075002D01*
X154696833Y-142991669D01*
X154763500Y-142916669D01*
X154830167Y-142775003D01*
X154830167Y-142241669D01*
X154963500Y-143625002D02*
X154963500Y-144691669D01*
X154230167Y-145383336D02*
X154163500Y-145458335D01*
X154096833Y-145600002D01*
X154096833Y-145933335D01*
X154163500Y-146058335D01*
X154230167Y-146116669D01*
X154363500Y-146166669D01*
X154496833Y-146150002D01*
X154696833Y-146058335D01*
X155496833Y-145158335D01*
X155496833Y-146025002D01*
X154096833Y-147066668D02*
X154096833Y-147200001D01*
X154163500Y-147325002D01*
X154230167Y-147383335D01*
X154363500Y-147433335D01*
X154630167Y-147466669D01*
X154963500Y-147425002D01*
X155230167Y-147325002D01*
X155363500Y-147241668D01*
X155430167Y-147166669D01*
X155496833Y-147025001D01*
X155496833Y-146891668D01*
X155430167Y-146766669D01*
X155363500Y-146708335D01*
X155230167Y-146658335D01*
X154963500Y-146625002D01*
X154630167Y-146666669D01*
X154363500Y-146766668D01*
X154230167Y-146850002D01*
X154163500Y-146925002D01*
X154096833Y-147066668D01*
D12*
X154335000Y-134960000D02*
X154335000Y-135460000D01*
X153385000Y-135460000D02*
X153385000Y-134960000D01*
M02*
