G04 #@! TF.FileFunction,Soldermask,Top*
%FSLAX46Y46*%
G04 Gerber Fmt 4.6, Leading zero omitted, Abs format (unit mm)*
G04 Created by KiCad (PCBNEW 4.0.2-stable) date 02.09.2016 09:00:48*
%MOMM*%
G01*
G04 APERTURE LIST*
%ADD10C,0.100000*%
%ADD11O,2.000000X2.000000*%
%ADD12R,0.885000X0.630000*%
%ADD13R,1.375000X0.630000*%
%ADD14R,1.175000X0.630000*%
%ADD15R,0.630000X1.175000*%
G04 APERTURE END LIST*
D10*
D11*
X150000000Y-123460000D03*
X150000000Y-126000000D03*
X150000000Y-128540000D03*
X150000000Y-131080000D03*
X150000000Y-133620000D03*
X150000000Y-136160000D03*
X150000000Y-138700000D03*
X150000000Y-141240000D03*
X150000000Y-143780000D03*
X150000000Y-146320000D03*
X157620000Y-146320000D03*
X157620000Y-143780000D03*
X157620000Y-141240000D03*
X157620000Y-138700000D03*
X157620000Y-136160000D03*
X157620000Y-133620000D03*
X157620000Y-131080000D03*
X157620000Y-128540000D03*
X157620000Y-126000000D03*
X157620000Y-123460000D03*
D12*
X152993000Y-134000000D03*
X152993000Y-134400000D03*
D13*
X153238000Y-134800000D03*
D14*
X153138000Y-135200000D03*
X153138000Y-135600000D03*
D12*
X152993000Y-136000000D03*
X152993000Y-136400000D03*
D15*
X153500000Y-133925000D03*
X153900000Y-133925000D03*
X154300000Y-133925000D03*
D12*
X154807000Y-134000000D03*
X154807000Y-134400000D03*
D14*
X154662000Y-134800000D03*
X154662000Y-135200000D03*
X154662000Y-135600000D03*
D12*
X154807000Y-136000000D03*
X154807000Y-136400000D03*
D15*
X153900000Y-136495000D03*
X153500000Y-136495000D03*
X154300000Y-136495000D03*
M02*
