M48
;DRILL file {KiCad 4.0.2-stable} date 31.08.2016 16:52:04
;FORMAT={-:-/ absolute / inch / decimal}
FMAT,2
INCH,TZ
T1C0.016
T2C0.031
%
G90
G05
M72
T1
X6.0177Y-5.2323
X6.1004Y-5.4114
T2
X5.9055Y-4.8606
X5.9055Y-4.9606
X5.9055Y-5.0606
X5.9055Y-5.1606
X5.9055Y-5.2606
X5.9055Y-5.3606
X5.9055Y-5.4606
X5.9055Y-5.5606
X5.9055Y-5.6606
X5.9055Y-5.7606
X6.2055Y-4.8606
X6.2055Y-4.9606
X6.2055Y-5.0606
X6.2055Y-5.1606
X6.2055Y-5.2606
X6.2055Y-5.3606
X6.2055Y-5.4606
X6.2055Y-5.5606
X6.2055Y-5.6606
X6.2055Y-5.7606
T0
M30
